<?xml version="1.0" standalone="no"?>
<!DOCTYPE svg PUBLIC "-//W3C//DTD SVG 20010904//EN"
 "http://www.w3.org/TR/2001/REC-SVG-20010904/DTD/svg10.dtd">
<svg version="1.0" xmlns="http://www.w3.org/2000/svg"
 width="406.000000pt" height="406.000000pt" viewBox="0 0 406.000000 406.000000"
 preserveAspectRatio="xMidYMid meet">
<metadata>
Created by potrace 1.11, written by Peter Selinger 2001-2013
</metadata>
<g transform="translate(0.000000,406.000000) scale(0.100000,-0.100000)"
fill="#000000" stroke="none">
<path d="M642 4039 c-67 -26 -144 -102 -168 -166 -16 -41 -19 -77 -19 -238 l0
-190 1065 -1 c767 -1 1076 -4 1106 -12 53 -15 126 -64 159 -107 62 -82 60 -61
62 -631 2 -367 -1 -532 -9 -560 -29 -98 -120 -190 -211 -215 -27 -7 -385 -11
-1109 -11 l-1068 1 0 -822 c1 -900 -2 -866 60 -950 50 -69 131 -114 215 -123
18 -1 246 -5 506 -8 457 -5 476 -4 527 15 72 28 143 99 170 172 21 54 22 78
27 574 3 284 8 519 10 522 3 2 40 5 83 6 332 9 629 77 867 198 366 186 615
521 671 902 3 17 7 41 11 55 9 40 12 366 3 407 -5 21 -11 61 -14 88 -9 78 -52
227 -93 317 -61 136 -137 244 -247 354 -243 241 -528 365 -986 430 -25 3 -387
8 -805 10 -748 3 -761 3 -813 -17z"/>
<path d="M943 3192 c-53 -3 -67 -7 -91 -32 -27 -27 -29 -35 -31 -114 -3 -151
30 -182 186 -174 64 3 76 7 100 31 24 24 28 36 31 103 9 162 -26 194 -195 186z"/>
<path d="M1340 3192 c-77 -9 -100 -49 -100 -170 0 -85 1 -89 31 -118 29 -28
33 -29 129 -29 95 0 101 1 127 28 26 26 28 33 30 119 2 100 -9 135 -49 156
-22 12 -118 20 -168 14z"/>
<path d="M1770 3192 c-87 -7 -112 -46 -109 -169 2 -78 4 -88 30 -117 27 -31
28 -31 128 -31 96 0 102 1 128 28 24 24 28 36 31 103 5 90 -9 146 -42 167 -23
16 -100 24 -166 19z"/>
<path d="M2267 3189 c-37 -6 -56 -20 -75 -56 -9 -16 -12 -148 -12 -463 0 -490
1 -498 62 -519 17 -6 100 -11 185 -11 168 0 200 8 222 57 7 16 11 170 11 469
0 480 -1 485 -53 513 -26 14 -272 21 -340 10z"/>
<path d="M894 2823 c-12 -2 -32 -15 -45 -29 -21 -22 -24 -37 -27 -119 -4 -84
-1 -98 18 -124 26 -37 63 -48 153 -45 120 3 149 36 146 162 -2 93 -9 115 -45
139 -26 17 -142 26 -200 16z"/>
<path d="M1291 2809 c-44 -26 -51 -48 -51 -147 0 -85 1 -91 29 -121 16 -17 37
-31 48 -32 149 -8 187 -1 219 39 18 22 22 41 23 108 3 140 -22 168 -155 170
-64 1 -89 -2 -113 -17z"/>
<path d="M1734 2823 c-12 -2 -32 -15 -45 -29 -21 -22 -24 -37 -27 -113 -6
-141 18 -171 141 -175 144 -5 177 24 177 156 0 134 -25 161 -149 163 -42 1
-86 0 -97 -2z"/>
<path d="M1720 2447 c-49 -23 -60 -52 -60 -148 0 -130 28 -159 154 -159 138 0
166 27 166 160 0 85 -16 132 -49 146 -9 4 -52 10 -95 13 -66 5 -86 3 -116 -12z"/>
<path d="M871 2446 c-39 -22 -50 -54 -51 -146 0 -87 10 -117 49 -146 8 -6 56
-12 107 -13 90 -2 94 -1 126 28 32 28 33 33 36 114 5 102 -13 150 -60 166 -43
15 -178 13 -207 -3z"/>
<path d="M1283 2441 c-34 -28 -43 -57 -43 -141 0 -132 27 -160 154 -160 136 0
166 29 166 160 0 91 -19 135 -65 150 -51 17 -187 11 -212 -9z"/>
</g>
</svg>
